<svg xmlns="http://www.w3.org/2000/svg" width="48" height="60" viewBox="0 0 48 60" fill="none" role="img" aria-labelledby="title">
  <title id="title">ایستگاه شارژ آزاد</title>
  <defs><filter id="s" x="-25%" y="-20%" width="150%" height="160%"><feDropShadow dx="0" dy="3" stdDeviation="3" flood-color="#0F172A" flood-opacity=".24"/></filter></defs>
  <g filter="url(#s)">
    <path d="M24 57C20.8 52.1 5 38.1 5 24A19 19 0 1 1 43 24c0 14.1-15.8 28.1-19 33Z" fill="#16A34A" stroke="#fff" stroke-width="3"/>
    <circle cx="24" cy="24" r="13" fill="#fff"/>
    <path d="M20 15.5h7.3a3.2 3.2 0 0 1 3.2 3.2v10.8h-11V16a.5.5 0 0 1 .5-.5Z" fill="none" stroke="#15803D" stroke-width="2.2" stroke-linejoin="round"/>
    <path d="M22 19h6v5h-6zM30.5 21.5h1.2c1.3 0 2.3 1 2.3 2.3v4.1c0 1.1-.9 2.1-2.1 2.1h-1.4M17.5 30h15" fill="none" stroke="#15803D" stroke-width="2.2" stroke-linecap="round" stroke-linejoin="round"/>
    <path d="m24.8 24.5-2.1 3.1h2l-1 3.2 3-4.2h-2l1.1-2.1h-1Z" fill="#16A34A"/>
  </g>
</svg>
