<svg xmlns="http://www.w3.org/2000/svg" width="52" height="64" viewBox="0 0 52 64" fill="none" role="img" aria-labelledby="title"><title id="title">وضعیت ایستگاه منقضی شده</title><path d="M26 61C22.4 55.3 5 40.7 5 25A21 21 0 1 1 47 25c0 15.7-17.4 30.3-21 36Z" fill="#687B78" stroke="#fff" stroke-width="3" stroke-dasharray="4 2"/><rect x="13" y="12" width="26" height="27" rx="9" fill="#fff"/><path d="M18.5 34.5h15M20 30V19.5a3 3 0 0 1 3-3h6a3 3 0 0 1 3 3V30M23 21h6" stroke="#102A27" stroke-width="2" stroke-linecap="round" opacity=".26"/><circle cx="40" cy="13" r="8" fill="#EEF2F1" stroke="#fff" stroke-width="2"/><circle cx="40" cy="13" r="3.8" stroke="#526864" stroke-width="1.7"/><path d="M40 10.8v2.5l1.7 1" stroke="#526864" stroke-width="1.7" stroke-linecap="round"/></svg>
